<?xml version="1.0" encoding="UTF-8"?>
<svg width="32" height="32" viewBox="0 0 32 32" fill="none" xmlns="http://www.w3.org/2000/svg">
  <path d="M29.8836 6.146L16.7418 28.3437c-.3074.5435-.9216.8581-1.5783.8581-.6567 0-1.2709-.3146-1.5783-.8581L.8594 6.146C.5329 5.56166.6267 4.83952 1.0925 4.3544c.4658-.48512 1.1682-.60295 1.7515-.2765L16 12.1074l13.156-9.0695c.5833-.32645 1.2857-.20862 1.7515.2765.4658.48512.5596 1.20726.2331 1.7916z" fill="#646CFF"/>
  <path d="M20.5484 0c-.4018 0-.788.1419-1.0898.4014L7.22 10.7188c-.3018.2595-.4719.6355-.4719 1.0286v8.5052c0 .3931.1701.7691.4719 1.0286l12.2386 10.3174c.3018.2595.688.4014 1.0898.4014.4018 0 .788-.1419 1.0898-.4014l12.2386-10.3174c.3018-.2595.4719-.6355.4719-1.0286v-8.5052c0-.3931-.1701-.7691-.4719-1.0286L21.6382.4014C21.3364.1419 20.9502 0 20.5484 0z" fill="#646CFF"/>
</svg>
